<svg width="455" height="223" viewBox="0 0 455 223" fill="none" xmlns="http://www.w3.org/2000/svg">
<path d="M232.004 157.08C246.097 177.284 233.034 205.168 208.49 207.271L35.0547 222.131C10.511 224.233 -7.10532 198.978 3.34538 176.672L77.1942 19.042C87.6449 -3.26494 118.325 -5.89361 132.418 14.3104L232.004 157.08Z" fill="url(#paint0_linear_0_1)" fill-opacity="0.72"/>
<path d="M111.52 136.64H88.24L84.24 148H74.72L94.64 92.32H105.2L125.12 148H115.52L111.52 136.64ZM108.96 129.2L99.92 103.36L90.8 129.2H108.96ZM146.901 110.48C148.448 108.347 150.555 106.613 153.221 105.28C155.941 103.893 158.955 103.2 162.261 103.2C166.155 103.2 169.675 104.133 172.821 106C175.968 107.867 178.448 110.533 180.261 114C182.075 117.413 182.981 121.333 182.981 125.76C182.981 130.187 182.075 134.16 180.261 137.68C178.448 141.147 175.941 143.867 172.741 145.84C169.595 147.76 166.101 148.72 162.261 148.72C158.848 148.72 155.808 148.053 153.141 146.72C150.528 145.387 148.448 143.68 146.901 141.6V148H137.781V88.8H146.901V110.48ZM173.701 125.76C173.701 122.72 173.061 120.107 171.781 117.92C170.555 115.68 168.901 114 166.821 112.88C164.795 111.707 162.608 111.12 160.261 111.12C157.968 111.12 155.781 111.707 153.701 112.88C151.675 114.053 150.021 115.76 148.741 118C147.515 120.24 146.901 122.88 146.901 125.92C146.901 128.96 147.515 131.627 148.741 133.92C150.021 136.16 151.675 137.867 153.701 139.04C155.781 140.213 157.968 140.8 160.261 140.8C162.608 140.8 164.795 140.213 166.821 139.04C168.901 137.813 170.555 136.053 171.781 133.76C173.061 131.467 173.701 128.8 173.701 125.76ZM215.12 148.72C210.96 148.72 207.2 147.787 203.84 145.92C200.48 144 197.84 141.333 195.92 137.92C194 134.453 193.04 130.453 193.04 125.92C193.04 121.44 194.027 117.467 196 114C197.973 110.533 200.667 107.867 204.08 106C207.493 104.133 211.307 103.2 215.52 103.2C219.733 103.2 223.547 104.133 226.96 106C230.373 107.867 233.067 110.533 235.04 114C237.013 117.467 238 121.44 238 125.92C238 130.4 236.987 134.373 234.96 137.84C232.933 141.307 230.16 144 226.64 145.92C223.173 147.787 219.333 148.72 215.12 148.72ZM215.12 140.8C217.467 140.8 219.653 140.24 221.68 139.12C223.76 138 225.44 136.32 226.72 134.08C228 131.84 228.64 129.12 228.64 125.92C228.64 122.72 228.027 120.027 226.8 117.84C225.573 115.6 223.947 113.92 221.92 112.8C219.893 111.68 217.707 111.12 215.36 111.12C213.013 111.12 210.827 111.68 208.8 112.8C206.827 113.92 205.253 115.6 204.08 117.84C202.907 120.027 202.32 122.72 202.32 125.92C202.32 130.667 203.52 134.347 205.92 136.96C208.373 139.52 211.44 140.8 215.12 140.8ZM290.936 103.92V148H281.816V142.8C280.376 144.613 278.482 146.053 276.136 147.12C273.842 148.133 271.389 148.64 268.776 148.64C265.309 148.64 262.189 147.92 259.416 146.48C256.696 145.04 254.536 142.907 252.936 140.08C251.389 137.253 250.616 133.84 250.616 129.84V103.92H259.656V128.48C259.656 132.427 260.642 135.467 262.616 137.6C264.589 139.68 267.282 140.72 270.696 140.72C274.109 140.72 276.802 139.68 278.776 137.6C280.802 135.467 281.816 132.427 281.816 128.48V103.92H290.936ZM317.609 111.36V135.76C317.609 137.413 317.982 138.613 318.729 139.36C319.529 140.053 320.862 140.4 322.729 140.4H328.329V148H321.129C317.022 148 313.875 147.04 311.689 145.12C309.502 143.2 308.409 140.08 308.409 135.76V111.36H303.209V103.92H308.409V92.96H317.609V103.92H328.329V111.36H317.609ZM405.436 103.92V148H396.316V142.8C394.876 144.613 392.982 146.053 390.636 147.12C388.342 148.133 385.889 148.64 383.276 148.64C379.809 148.64 376.689 147.92 373.916 146.48C371.196 145.04 369.036 142.907 367.436 140.08C365.889 137.253 365.116 133.84 365.116 129.84V103.92H374.156V128.48C374.156 132.427 375.142 135.467 377.116 137.6C379.089 139.68 381.782 140.72 385.196 140.72C388.609 140.72 391.302 139.68 393.276 137.6C395.302 135.467 396.316 132.427 396.316 128.48V103.92H405.436ZM437.469 148.72C434.002 148.72 430.882 148.107 428.109 146.88C425.389 145.6 423.229 143.893 421.629 141.76C420.029 139.573 419.175 137.147 419.069 134.48H428.509C428.669 136.347 429.549 137.92 431.149 139.2C432.802 140.427 434.855 141.04 437.309 141.04C439.869 141.04 441.842 140.56 443.229 139.6C444.669 138.587 445.389 137.307 445.389 135.76C445.389 134.107 444.589 132.88 442.989 132.08C441.442 131.28 438.962 130.4 435.549 129.44C432.242 128.533 429.549 127.653 427.469 126.8C425.389 125.947 423.575 124.64 422.029 122.88C420.535 121.12 419.789 118.8 419.789 115.92C419.789 113.573 420.482 111.44 421.869 109.52C423.255 107.547 425.229 106 427.789 104.88C430.402 103.76 433.389 103.2 436.749 103.2C441.762 103.2 445.789 104.48 448.829 107.04C451.922 109.547 453.575 112.987 453.789 117.36H444.669C444.509 115.387 443.709 113.813 442.269 112.64C440.829 111.467 438.882 110.88 436.429 110.88C434.029 110.88 432.189 111.333 430.909 112.24C429.629 113.147 428.989 114.347 428.989 115.84C428.989 117.013 429.415 118 430.269 118.8C431.122 119.6 432.162 120.24 433.389 120.72C434.615 121.147 436.429 121.707 438.829 122.4C442.029 123.253 444.642 124.133 446.669 125.04C448.749 125.893 450.535 127.173 452.029 128.88C453.522 130.587 454.295 132.853 454.349 135.68C454.349 138.187 453.655 140.427 452.269 142.4C450.882 144.373 448.909 145.92 446.349 147.04C443.842 148.16 440.882 148.72 437.469 148.72Z" fill="white"/>
<defs>
<linearGradient id="paint0_linear_0_1" x1="263.714" y1="202.539" x2="-34.2115" y2="62.9625" gradientUnits="userSpaceOnUse">
<stop offset="0.151042"/>
<stop offset="0.477083"/>
<stop offset="0.763542" stop-color="#0027FF"/>
</linearGradient>
</defs>
</svg>
