<svg width="486" height="223" viewBox="0 0 486 223" fill="none" xmlns="http://www.w3.org/2000/svg">
<path d="M232.239 157.081C246.339 177.28 233.264 205.168 208.709 207.271L35.114 222.134C10.5672 224.235 -7.04336 198.991 3.41215 176.689L77.329 19.0244C87.7845 -3.27721 118.466 -5.91313 132.561 14.2793L232.239 157.081Z" fill="url(#paint0_linear_0_1)" fill-opacity="0.72"/>
<path d="M74.96 120.08C74.96 114.64 76.2133 109.76 78.72 105.44C81.28 101.12 84.72 97.76 89.04 95.36C93.4133 92.9067 98.1867 91.68 103.36 91.68C109.28 91.68 114.533 93.1467 119.12 96.08C123.76 98.96 127.12 103.067 129.2 108.4H118.24C116.8 105.467 114.8 103.28 112.24 101.84C109.68 100.4 106.72 99.68 103.36 99.68C99.68 99.68 96.4 100.507 93.52 102.16C90.64 103.813 88.3733 106.187 86.72 109.28C85.12 112.373 84.32 115.973 84.32 120.08C84.32 124.187 85.12 127.787 86.72 130.88C88.3733 133.973 90.64 136.373 93.52 138.08C96.4 139.733 99.68 140.56 103.36 140.56C106.72 140.56 109.68 139.84 112.24 138.4C114.8 136.96 116.8 134.773 118.24 131.84H129.2C127.12 137.173 123.76 141.28 119.12 144.16C114.533 147.04 109.28 148.48 103.36 148.48C98.1333 148.48 93.36 147.28 89.04 144.88C84.72 142.427 81.28 139.04 78.72 134.72C76.2133 130.4 74.96 125.52 74.96 120.08ZM166.675 103.2C170.035 103.2 173.022 103.92 175.635 105.36C178.302 106.8 180.382 108.933 181.875 111.76C183.422 114.587 184.195 118 184.195 122V148H175.155V123.36C175.155 119.413 174.168 116.4 172.195 114.32C170.222 112.187 167.528 111.12 164.115 111.12C160.702 111.12 157.982 112.187 155.955 114.32C153.982 116.4 152.995 119.413 152.995 123.36V148H143.875V88.8H152.995V109.04C154.542 107.173 156.488 105.733 158.835 104.72C161.235 103.707 163.848 103.2 166.675 103.2ZM240.228 124.88C240.228 126.533 240.121 128.027 239.908 129.36H206.228C206.495 132.88 207.801 135.707 210.148 137.84C212.495 139.973 215.375 141.04 218.788 141.04C223.695 141.04 227.161 138.987 229.188 134.88H239.028C237.695 138.933 235.268 142.267 231.748 144.88C228.281 147.44 223.961 148.72 218.788 148.72C214.575 148.72 210.788 147.787 207.428 145.92C204.121 144 201.508 141.333 199.588 137.92C197.721 134.453 196.788 130.453 196.788 125.92C196.788 121.387 197.695 117.413 199.508 114C201.375 110.533 203.961 107.867 207.268 106C210.628 104.133 214.468 103.2 218.788 103.2C222.948 103.2 226.655 104.107 229.908 105.92C233.161 107.733 235.695 110.293 237.508 113.6C239.321 116.853 240.228 120.613 240.228 124.88ZM230.708 122C230.655 118.64 229.455 115.947 227.108 113.92C224.761 111.893 221.855 110.88 218.388 110.88C215.241 110.88 212.548 111.893 210.308 113.92C208.068 115.893 206.735 118.587 206.308 122H230.708ZM250.163 125.92C250.163 121.387 251.07 117.413 252.883 114C254.75 110.533 257.31 107.867 260.563 106C263.816 104.133 267.55 103.2 271.763 103.2C277.096 103.2 281.496 104.48 284.963 107.04C288.483 109.547 290.856 113.147 292.083 117.84H282.243C281.443 115.653 280.163 113.947 278.403 112.72C276.643 111.493 274.43 110.88 271.763 110.88C268.03 110.88 265.043 112.213 262.803 114.88C260.616 117.493 259.523 121.173 259.523 125.92C259.523 130.667 260.616 134.373 262.803 137.04C265.043 139.707 268.03 141.04 271.763 141.04C277.043 141.04 280.536 138.72 282.243 134.08H292.083C290.803 138.56 288.403 142.133 284.883 144.8C281.363 147.413 276.99 148.72 271.763 148.72C267.55 148.72 263.816 147.787 260.563 145.92C257.31 144 254.75 141.333 252.883 137.92C251.07 134.453 250.163 130.453 250.163 125.92ZM322.612 126L342.932 148H330.612L314.292 129.04V148H305.172V88.8H314.292V123.2L330.292 103.92H342.932L322.612 126ZM372.589 148.72C368.429 148.72 364.669 147.787 361.309 145.92C357.949 144 355.309 141.333 353.389 137.92C351.469 134.453 350.509 130.453 350.509 125.92C350.509 121.44 351.495 117.467 353.469 114C355.442 110.533 358.135 107.867 361.549 106C364.962 104.133 368.775 103.2 372.989 103.2C377.202 103.2 381.015 104.133 384.429 106C387.842 107.867 390.535 110.533 392.509 114C394.482 117.467 395.469 121.44 395.469 125.92C395.469 130.4 394.455 134.373 392.429 137.84C390.402 141.307 387.629 144 384.109 145.92C380.642 147.787 376.802 148.72 372.589 148.72ZM372.589 140.8C374.935 140.8 377.122 140.24 379.149 139.12C381.229 138 382.909 136.32 384.189 134.08C385.469 131.84 386.109 129.12 386.109 125.92C386.109 122.72 385.495 120.027 384.269 117.84C383.042 115.6 381.415 113.92 379.389 112.8C377.362 111.68 375.175 111.12 372.829 111.12C370.482 111.12 368.295 111.68 366.269 112.8C364.295 113.92 362.722 115.6 361.549 117.84C360.375 120.027 359.789 122.72 359.789 125.92C359.789 130.667 360.989 134.347 363.389 136.96C365.842 139.52 368.909 140.8 372.589 140.8ZM448.404 103.92V148H439.284V142.8C437.844 144.613 435.951 146.053 433.604 147.12C431.311 148.133 428.858 148.64 426.244 148.64C422.778 148.64 419.658 147.92 416.884 146.48C414.164 145.04 412.004 142.907 410.404 140.08C408.858 137.253 408.084 133.84 408.084 129.84V103.92H417.124V128.48C417.124 132.427 418.111 135.467 420.084 137.6C422.058 139.68 424.751 140.72 428.164 140.72C431.578 140.72 434.271 139.68 436.244 137.6C438.271 135.467 439.284 132.427 439.284 128.48V103.92H448.404ZM475.078 111.36V135.76C475.078 137.413 475.451 138.613 476.198 139.36C476.998 140.053 478.331 140.4 480.198 140.4H485.798V148H478.598C474.491 148 471.344 147.04 469.158 145.12C466.971 143.2 465.878 140.08 465.878 135.76V111.36H460.678V103.92H465.878V92.96H475.078V103.92H485.798V111.36H475.078Z" fill="white"/>
<defs>
<linearGradient id="paint0_linear_0_1" x1="263.97" y1="202.539" x2="-34.0878" y2="62.8026" gradientUnits="userSpaceOnUse">
<stop offset="0.151042"/>
<stop offset="0.477083"/>
<stop offset="0.763542" stop-color="#0027FF"/>
</linearGradient>
</defs>
</svg>
