<svg width="547" height="223" viewBox="0 0 547 223" fill="none" xmlns="http://www.w3.org/2000/svg">
<path d="M232.004 157.08C246.097 177.284 233.034 205.168 208.49 207.271L35.0547 222.131C10.511 224.233 -7.10532 198.978 3.34538 176.672L77.1942 19.042C87.6449 -3.26494 118.325 -5.89361 132.418 14.3104L232.004 157.08Z" fill="url(#paint0_linear_0_1)" fill-opacity="0.72"/>
<path d="M74.96 120.08C74.96 114.64 76.2133 109.76 78.72 105.44C81.28 101.12 84.72 97.76 89.04 95.36C93.4133 92.9067 98.1867 91.68 103.36 91.68C109.28 91.68 114.533 93.1467 119.12 96.08C123.76 98.96 127.12 103.067 129.2 108.4H118.24C116.8 105.467 114.8 103.28 112.24 101.84C109.68 100.4 106.72 99.68 103.36 99.68C99.68 99.68 96.4 100.507 93.52 102.16C90.64 103.813 88.3733 106.187 86.72 109.28C85.12 112.373 84.32 115.973 84.32 120.08C84.32 124.187 85.12 127.787 86.72 130.88C88.3733 133.973 90.64 136.373 93.52 138.08C96.4 139.733 99.68 140.56 103.36 140.56C106.72 140.56 109.68 139.84 112.24 138.4C114.8 136.96 116.8 134.773 118.24 131.84H129.2C127.12 137.173 123.76 141.28 119.12 144.16C114.533 147.04 109.28 148.48 103.36 148.48C98.1333 148.48 93.36 147.28 89.04 144.88C84.72 142.427 81.28 139.04 78.72 134.72C76.2133 130.4 74.96 125.52 74.96 120.08ZM162.995 148.72C158.835 148.72 155.075 147.787 151.715 145.92C148.355 144 145.715 141.333 143.795 137.92C141.875 134.453 140.915 130.453 140.915 125.92C140.915 121.44 141.902 117.467 143.875 114C145.848 110.533 148.542 107.867 151.955 106C155.368 104.133 159.182 103.2 163.395 103.2C167.608 103.2 171.422 104.133 174.835 106C178.248 107.867 180.942 110.533 182.915 114C184.888 117.467 185.875 121.44 185.875 125.92C185.875 130.4 184.862 134.373 182.835 137.84C180.808 141.307 178.035 144 174.515 145.92C171.048 147.787 167.208 148.72 162.995 148.72ZM162.995 140.8C165.342 140.8 167.528 140.24 169.555 139.12C171.635 138 173.315 136.32 174.595 134.08C175.875 131.84 176.515 129.12 176.515 125.92C176.515 122.72 175.902 120.027 174.675 117.84C173.448 115.6 171.822 113.92 169.795 112.8C167.768 111.68 165.582 111.12 163.235 111.12C160.888 111.12 158.702 111.68 156.675 112.8C154.702 113.92 153.128 115.6 151.955 117.84C150.782 120.027 150.195 122.72 150.195 125.92C150.195 130.667 151.395 134.347 153.795 136.96C156.248 139.52 159.315 140.8 162.995 140.8ZM221.131 103.2C224.597 103.2 227.691 103.92 230.411 105.36C233.184 106.8 235.344 108.933 236.891 111.76C238.437 114.587 239.211 118 239.211 122V148H230.171V123.36C230.171 119.413 229.184 116.4 227.211 114.32C225.237 112.187 222.544 111.12 219.131 111.12C215.717 111.12 212.997 112.187 210.971 114.32C208.997 116.4 208.011 119.413 208.011 123.36V148H198.891V103.92H208.011V108.96C209.504 107.147 211.397 105.733 213.691 104.72C216.037 103.707 218.517 103.2 221.131 103.2ZM265.484 111.36V135.76C265.484 137.413 265.857 138.613 266.604 139.36C267.404 140.053 268.737 140.4 270.604 140.4H276.204V148H269.004C264.897 148 261.75 147.04 259.564 145.12C257.377 143.2 256.284 140.08 256.284 135.76V111.36H251.084V103.92H256.284V92.96H265.484V103.92H276.204V111.36H265.484ZM285.569 125.76C285.569 121.333 286.476 117.413 288.289 114C290.156 110.587 292.663 107.947 295.809 106.08C299.009 104.16 302.529 103.2 306.369 103.2C309.836 103.2 312.849 103.893 315.409 105.28C318.023 106.613 320.103 108.293 321.649 110.32V103.92H330.849V148H321.649V141.44C320.103 143.52 317.996 145.253 315.329 146.64C312.663 148.027 309.623 148.72 306.209 148.72C302.423 148.72 298.956 147.76 295.809 145.84C292.663 143.867 290.156 141.147 288.289 137.68C286.476 134.16 285.569 130.187 285.569 125.76ZM321.649 125.92C321.649 122.88 321.009 120.24 319.729 118C318.503 115.76 316.876 114.053 314.849 112.88C312.823 111.707 310.636 111.12 308.289 111.12C305.943 111.12 303.756 111.707 301.729 112.88C299.703 114 298.049 115.68 296.769 117.92C295.543 120.107 294.929 122.72 294.929 125.76C294.929 128.8 295.543 131.467 296.769 133.76C298.049 136.053 299.703 137.813 301.729 139.04C303.809 140.213 305.996 140.8 308.289 140.8C310.636 140.8 312.823 140.213 314.849 139.04C316.876 137.867 318.503 136.16 319.729 133.92C321.009 131.627 321.649 128.96 321.649 125.92ZM343.788 125.92C343.788 121.387 344.695 117.413 346.508 114C348.375 110.533 350.935 107.867 354.188 106C357.441 104.133 361.175 103.2 365.388 103.2C370.721 103.2 375.121 104.48 378.588 107.04C382.108 109.547 384.481 113.147 385.708 117.84H375.868C375.068 115.653 373.788 113.947 372.028 112.72C370.268 111.493 368.055 110.88 365.388 110.88C361.655 110.88 358.668 112.213 356.428 114.88C354.241 117.493 353.148 121.173 353.148 125.92C353.148 130.667 354.241 134.373 356.428 137.04C358.668 139.707 361.655 141.04 365.388 141.04C370.668 141.04 374.161 138.72 375.868 134.08H385.708C384.428 138.56 382.028 142.133 378.508 144.8C374.988 147.413 370.615 148.72 365.388 148.72C361.175 148.72 357.441 147.787 354.188 145.92C350.935 144 348.375 141.333 346.508 137.92C344.695 134.453 343.788 130.453 343.788 125.92ZM409.437 111.36V135.76C409.437 137.413 409.81 138.613 410.557 139.36C411.357 140.053 412.69 140.4 414.557 140.4H420.157V148H412.957C408.85 148 405.704 147.04 403.517 145.12C401.33 143.2 400.237 140.08 400.237 135.76V111.36H395.037V103.92H400.237V92.96H409.437V103.92H420.157V111.36H409.437ZM497.264 103.92V148H488.144V142.8C486.704 144.613 484.81 146.053 482.464 147.12C480.17 148.133 477.717 148.64 475.104 148.64C471.637 148.64 468.517 147.92 465.744 146.48C463.024 145.04 460.864 142.907 459.264 140.08C457.717 137.253 456.944 133.84 456.944 129.84V103.92H465.984V128.48C465.984 132.427 466.97 135.467 468.944 137.6C470.917 139.68 473.61 140.72 477.024 140.72C480.437 140.72 483.13 139.68 485.104 137.6C487.13 135.467 488.144 132.427 488.144 128.48V103.92H497.264ZM529.297 148.72C525.83 148.72 522.71 148.107 519.937 146.88C517.217 145.6 515.057 143.893 513.457 141.76C511.857 139.573 511.004 137.147 510.897 134.48H520.337C520.497 136.347 521.377 137.92 522.977 139.2C524.63 140.427 526.684 141.04 529.137 141.04C531.697 141.04 533.67 140.56 535.057 139.6C536.497 138.587 537.217 137.307 537.217 135.76C537.217 134.107 536.417 132.88 534.817 132.08C533.27 131.28 530.79 130.4 527.377 129.44C524.07 128.533 521.377 127.653 519.297 126.8C517.217 125.947 515.404 124.64 513.857 122.88C512.364 121.12 511.617 118.8 511.617 115.92C511.617 113.573 512.31 111.44 513.697 109.52C515.084 107.547 517.057 106 519.617 104.88C522.23 103.76 525.217 103.2 528.577 103.2C533.59 103.2 537.617 104.48 540.657 107.04C543.75 109.547 545.404 112.987 545.617 117.36H536.497C536.337 115.387 535.537 113.813 534.097 112.64C532.657 111.467 530.71 110.88 528.257 110.88C525.857 110.88 524.017 111.333 522.737 112.24C521.457 113.147 520.817 114.347 520.817 115.84C520.817 117.013 521.244 118 522.097 118.8C522.95 119.6 523.99 120.24 525.217 120.72C526.444 121.147 528.257 121.707 530.657 122.4C533.857 123.253 536.47 124.133 538.497 125.04C540.577 125.893 542.364 127.173 543.857 128.88C545.35 130.587 546.124 132.853 546.177 135.68C546.177 138.187 545.484 140.427 544.097 142.4C542.71 144.373 540.737 145.92 538.177 147.04C535.67 148.16 532.71 148.72 529.297 148.72Z" fill="white"/>
<defs>
<linearGradient id="paint0_linear_0_1" x1="263.714" y1="202.539" x2="-34.2115" y2="62.9625" gradientUnits="userSpaceOnUse">
<stop offset="0.151042"/>
<stop offset="0.477083"/>
<stop offset="0.763542" stop-color="#0027FF"/>
</linearGradient>
</defs>
</svg>
