<svg width="849" height="850" viewBox="0 0 849 850" fill="none" xmlns="http://www.w3.org/2000/svg">
<rect x="59.1577" y="849.186" width="792.312" height="791.344" transform="rotate(-94.282 59.1577 849.186)" fill="url(#paint0_linear_277_311)"/>
<rect x="23.4807" y="777.691" width="727.485" height="764" transform="rotate(-90.7309 23.4807 777.691)" fill="black" stroke="#0027FF" stroke-width="3"/>
<path d="M227.536 533.528V538.424H233.296V540.656H227.536V545.768H234.016V548H224.8V531.296H234.016V533.528H227.536ZM254.594 534.56C255.634 534.56 256.562 534.776 257.378 535.208C258.21 535.64 258.858 536.28 259.322 537.128C259.802 537.976 260.042 539 260.042 540.2V548H257.33V540.608C257.33 539.424 257.034 538.52 256.442 537.896C255.85 537.256 255.042 536.936 254.018 536.936C252.994 536.936 252.178 537.256 251.57 537.896C250.978 538.52 250.682 539.424 250.682 540.608V548H247.97V540.608C247.97 539.424 247.674 538.52 247.082 537.896C246.49 537.256 245.682 536.936 244.658 536.936C243.634 536.936 242.818 537.256 242.21 537.896C241.618 538.52 241.322 539.424 241.322 540.608V548H238.586V534.776H241.322V536.288C241.77 535.744 242.338 535.32 243.026 535.016C243.714 534.712 244.45 534.56 245.234 534.56C246.29 534.56 247.234 534.784 248.066 535.232C248.898 535.68 249.538 536.328 249.986 537.176C250.386 536.376 251.01 535.744 251.858 535.28C252.706 534.8 253.618 534.56 254.594 534.56ZM263.811 541.328C263.811 540 264.083 538.824 264.627 537.8C265.187 536.776 265.939 535.984 266.883 535.424C267.843 534.848 268.899 534.56 270.051 534.56C271.091 534.56 271.995 534.768 272.763 535.184C273.547 535.584 274.171 536.088 274.635 536.696V534.776H277.395V548H274.635V546.032C274.171 546.656 273.539 547.176 272.739 547.592C271.939 548.008 271.027 548.216 270.003 548.216C268.867 548.216 267.827 547.928 266.883 547.352C265.939 546.76 265.187 545.944 264.627 544.904C264.083 543.848 263.811 542.656 263.811 541.328ZM274.635 541.376C274.635 540.464 274.443 539.672 274.059 539C273.691 538.328 273.203 537.816 272.595 537.464C271.987 537.112 271.331 536.936 270.627 536.936C269.923 536.936 269.267 537.112 268.659 537.464C268.051 537.8 267.555 538.304 267.171 538.976C266.803 539.632 266.619 540.416 266.619 541.328C266.619 542.24 266.803 543.04 267.171 543.728C267.555 544.416 268.051 544.944 268.659 545.312C269.283 545.664 269.939 545.84 270.627 545.84C271.331 545.84 271.987 545.664 272.595 545.312C273.203 544.96 273.691 544.448 274.059 543.776C274.443 543.088 274.635 542.288 274.635 541.376ZM283.581 533.024C283.085 533.024 282.669 532.856 282.333 532.52C281.997 532.184 281.829 531.768 281.829 531.272C281.829 530.776 281.997 530.36 282.333 530.024C282.669 529.688 283.085 529.52 283.581 529.52C284.061 529.52 284.469 529.688 284.805 530.024C285.141 530.36 285.309 530.776 285.309 531.272C285.309 531.768 285.141 532.184 284.805 532.52C284.469 532.856 284.061 533.024 283.581 533.024ZM284.925 534.776V548H282.189V534.776H284.925ZM292.453 530.24V548H289.717V530.24H292.453Z" fill="black"/>
<defs>
<linearGradient id="paint0_linear_277_311" x1="61.3875" y1="836.463" x2="849.727" y2="1627.5" gradientUnits="userSpaceOnUse">
<stop stop-color="#0027FF"/>
<stop offset="0.389431" stop-opacity="0"/>
<stop offset="0.708333" stop-opacity="0"/>
<stop offset="0.944694" stop-color="#0027FF"/>
</linearGradient>
</defs>
</svg>
